<svg xmlns="http://www.w3.org/2000/svg" width="24" height="24" fill="#181717" viewBox="0 0 24 24">
  <path d="M12 .3a12 12 0 0 0-3.79 23.4c.6.11.82-.26.82-.58v-2c-3.34.73-4.04-1.61-4.04-1.61-.55-1.4-1.34-1.78-1.34-1.78-1.1-.75.09-.73.09-.73 1.21.09 1.85 1.26 1.85 1.26 1.08 1.85 2.82 1.32 3.51 1.01.11-.79.42-1.32.76-1.63-2.67-.3-5.47-1.34-5.47-5.95 0-1.32.47-2.41 1.25-3.26-.13-.3-.54-1.52.12-3.16 0 0 1.01-.32 3.3 1.24a11.52 11.52 0 0 1 6 0c2.29-1.56 3.3-1.24 3.3-1.24.66 1.64.25 2.86.12 3.16.78.85 1.25 1.94 1.25 3.26 0 4.63-2.81 5.64-5.49 5.94.43.37.82 1.1.82 2.23v3.29c0 .32.21.69.82.58A12 12 0 0 0 12 .3z"/>
</svg>
