<svg xmlns="http://www.w3.org/2000/svg" width="24" height="24" fill="#25D366" viewBox="0 0 24 24">
  <path d="M20.52 3.48A11.91 11.91 0 0 0 12 .07C5.52.07.07 5.52.07 12a11.9 11.9 0 0 0 2.04 6.68L0 24l5.45-2.05A11.94 11.94 0 0 0 12 23.93c6.48 0 11.93-5.45 11.93-11.93 0-3.19-1.24-6.18-3.41-8.52zm-8.52 18.4c-2.24 0-4.43-.6-6.35-1.73l-.46-.28-3.23 1.22.61-3.4-.22-.35a9.92 9.92 0 0 1-1.53-5.26c0-5.49 4.47-9.96 9.96-9.96 2.67 0 5.18 1.04 7.07 2.93a9.94 9.94 0 0 1 2.93 7.07c0 5.49-4.47 9.96-9.96 9.96zm5.47-7.48c-.3-.15-1.76-.87-2.03-.97-.27-.1-.47-.15-.67.15-.2.3-.77.97-.94 1.16-.17.2-.35.22-.65.07-.3-.15-1.26-.46-2.4-1.48-.89-.79-1.49-1.76-1.66-2.06-.17-.3-.02-.46.13-.61.14-.14.3-.35.45-.52.15-.17.2-.3.3-.5.1-.2.05-.37-.02-.52-.07-.15-.67-1.61-.92-2.21-.24-.58-.49-.5-.67-.5h-.57c-.2 0-.52.07-.8.37s-1.05 1.02-1.05 2.49 1.08 2.89 1.23 3.09c.15.2 2.13 3.25 5.17 4.55.72.31 1.28.49 1.72.63.72.23 1.37.2 1.88.12.57-.08 1.76-.72 2.01-1.42.25-.7.25-1.3.17-1.42-.07-.12-.27-.2-.57-.35z"/>
</svg>
